<svg id="圖層_1" data-name="圖層 1" xmlns="http://www.w3.org/2000/svg" viewBox="0 0 256 256"><defs><style>.cls-1{fill:#901e78;}</style></defs><path class="cls-1" d="M150.642,244.811c1.189,0,2.379.006,3.569,0,.582,0,1.164-.046,1.746-.058,3.822-.076,7.646-.118,11.467-.231,3.6-.105,7.2-.271,10.794-.434,1.916-.087,3.83-.226,5.808-.167-1.06.5-2.117,1-3.179,1.492-2.343,1.088-4.7,2.154-7.027,3.27a3.917,3.917,0,0,1-1.9.383c-2.8-.1-5.6-.19-8.4-.293q-5.726-.212-11.45-.44-4.742-.2-9.481-.439a2.865,2.865,0,0,0-1.833.537c-3.291,2.223-6.625,4.383-9.9,6.633a5.357,5.357,0,0,1-6.03.02c-3.273-2.249-6.6-4.41-9.9-6.633a3.006,3.006,0,0,0-1.938-.557c-2.941.159-5.883.3-8.825.433-.873.04-1.747.05-2.621.076-2.437.074-4.874.133-7.31.23-2.4.1-4.792.243-7.189.348-1.164.051-2.33.068-3.5.075a2.029,2.029,0,0,1-.846-.163c-3.566-1.641-7.124-3.3-10.655-5.136.4.039.8.1,1.194.113,2.691.1,5.383.187,8.073.3,2.361.1,4.72.247,7.081.349,1.237.053,2.476.053,3.714.08,2.256.049,4.512.107,6.768.149,1.821.034,3.643.05,5.465.073.345,0,.69,0,1.036,0l.046-.3c-.324-.089-.643-.207-.972-.263a124.878,124.878,0,0,1-24.927-6.736,105.239,105.239,0,0,1-23.278-12.834c-3.244-2.347-6.591-4.553-9.949-6.734a23.492,23.492,0,0,0-7.066-3.107,18.954,18.954,0,0,1-5.413-2.541,37.015,37.015,0,0,1-10.383-10.038c-2.725-3.826-5.3-7.76-7.936-11.648-.342-.5-.68-1.01-1.12-1.666a71.51,71.51,0,0,1,10.056,2.295,55.125,55.125,0,0,1,9.211,4.483c-.1-.44-.083-.627-.168-.738-2.795-3.645-5.892-6.966-10.174-8.886a37.347,37.347,0,0,0-4.531-1.579,8.712,8.712,0,0,1-4.465-3.154,67.145,67.145,0,0,1-8.6-15.038c-1.144-2.678-2.21-5.391-3.308-8.089-.135-.333-.252-.674-.444-1.19.316.145.49.217.656.3,2.453,1.273,4.878,2.606,7.367,3.807a26.111,26.111,0,0,1,6.892,4.355,27.526,27.526,0,0,1,2.287,2.773c.176.219.32.465.525.766a.918.918,0,0,0,.171-1.033c-1.3-4.8-3.938-8.567-8.512-10.784a15.463,15.463,0,0,1-4.008-2.611,16.316,16.316,0,0,1-3.85-6.645A56.607,56.607,0,0,1,.634,134.573c-.212-2.061-.414-4.123-.618-6.184-.014-.137,0-.276,0-.59.369.374.628.652.9.912q2.71,2.538,5.429,5.069a17.43,17.43,0,0,1,5.079,7.38,2.415,2.415,0,0,0,.444.8,9.007,9.007,0,0,0-.233-5.57,12.694,12.694,0,0,0-3.573-5.273,30.375,30.375,0,0,1-2.385-2.548,8.444,8.444,0,0,1-1.762-3.946,34.172,34.172,0,0,1-.575-7.6A96.111,96.111,0,0,1,4.9,104.473c.009-.054.1-.094.209-.192.274.462.53.938.827,1.386.865,1.306,1.743,2.6,2.62,3.9a16.654,16.654,0,0,1,2.77,5.892c.088.426.108.866.192,1.293a6.111,6.111,0,0,0,.319.829,10.958,10.958,0,0,0,1.257-3.872,7.7,7.7,0,0,0-.776-4.775c-.567-1.1-1.106-2.22-1.754-3.271a8.759,8.759,0,0,1-1.056-5.68c.436-4.529,2.107-8.675,3.9-12.787.4-.929.827-1.852,1.358-3.038,1.185,3.773,2.086,7.367,3.171,10.882.158-.008.264.016.292-.02a13.037,13.037,0,0,0,2.369-4.5,8.135,8.135,0,0,0-.158-3.672c-.194-1.074-.447-2.137-.647-3.209a4.663,4.663,0,0,1,.479-3.17c2.182-4.034,4.341-8.08,6.512-12.12.13-.241.3-.461.569-.877l.951,9.951c.63-.064.749-.506.951-.81,1.632-2.458,3.207-4.955,4.873-7.39,1.171-1.711,2.4-3.392,3.714-4.993A12.043,12.043,0,0,1,40.417,61.9a1.9,1.9,0,0,0,.989-1.962,6.841,6.841,0,0,1,.553-3.521,7.1,7.1,0,0,1,2.552-3.055L67.755,38.2,88.618,24.577,109.392,11.02q7.641-4.987,15.279-9.979a5.294,5.294,0,0,1,6.312.005q13.21,8.649,26.441,17.27,10.295,6.719,20.591,13.435,13.176,8.6,26.351,17.208c2.226,1.454,4.469,2.882,6.686,4.35a6.538,6.538,0,0,1,3.2,5.965,2.457,2.457,0,0,0,1.362,2.631c2.041,1.118,3.305,3.054,4.589,4.9,2.206,3.167,4.3,6.411,6.448,9.621.235.352.487.692.824,1.17a9.22,9.22,0,0,0,.549-3.308c.156-1.114.215-2.242.321-3.364a21.96,21.96,0,0,1,.485-3.273c.472.836.958,1.665,1.413,2.511,1.826,3.4,3.632,6.808,5.47,10.2a4.863,4.863,0,0,1,.51,3.375c-.275,1.391-.5,2.792-.805,4.178a6.307,6.307,0,0,0,.713,4.428A21.322,21.322,0,0,0,237.9,95.12a42.8,42.8,0,0,0,1.727-5.368c.532-1.766,1.02-3.547,1.582-5.516.21.364.342.552.434.758a72.013,72.013,0,0,1,3.967,10.161,25.157,25.157,0,0,1,.985,6.673,7.037,7.037,0,0,1-.923,3.435c-.625,1.152-1.25,2.3-1.859,3.463-1.508,2.869-1.077,5.7.188,8.51.024.053.112.078.234.158.095-.179.257-.347.268-.525a14.273,14.273,0,0,1,2.667-6.843c1.186-1.833,2.395-3.652,3.6-5.476a4.09,4.09,0,0,1,.319-.353c.165.949.323,1.792.455,2.639a63.434,63.434,0,0,1,1.139,12.259,49.85,49.85,0,0,1-.69,6.059,8.921,8.921,0,0,1-2.679,4.671c-.831.865-1.735,1.662-2.533,2.556A10.894,10.894,0,0,0,244,141.77c.009.059.082.109.209.267a6.445,6.445,0,0,0,.368-.774,17.5,17.5,0,0,1,5.2-7.553c2.063-1.89,4.1-3.8,6.2-5.751a10.883,10.883,0,0,1-.007,1.211c-.329,3-.6,6.006-1.033,8.991a44.111,44.111,0,0,1-3.71,12.968,11.616,11.616,0,0,1-5.394,5.529,18.866,18.866,0,0,0-5.655,3.85,17.5,17.5,0,0,0-4.038,7.647,1.715,1.715,0,0,0-.032.541,1.286,1.286,0,0,0,.152.343c.137-.12.269-.189.331-.3a17.376,17.376,0,0,1,7.713-6.71c2.5-1.263,5.032-2.468,7.536-3.725.706-.355,1.365-.8,2.206-1.3-.1.329-.133.5-.194.65-1.938,4.872-3.821,9.768-6.239,14.432a60.708,60.708,0,0,1-6.109,9.56,8.057,8.057,0,0,1-4.057,2.81c-1.077.335-2.158.659-3.223,1.031a19.438,19.438,0,0,0-7.329,4.631c-1.393,1.381-2.653,2.9-3.961,4.363a8.758,8.758,0,0,0-.62.9c.6.243.89-.121,1.223-.287,2.114-1.058,4.186-2.209,6.342-3.173a38.776,38.776,0,0,1,9.252-2.5c.776-.136,1.55-.282,2.5-.456-.372.564-.646.983-.923,1.4-2.122,3.183-4.211,6.388-6.377,9.54a50.149,50.149,0,0,1-6.734,8.161,29.555,29.555,0,0,1-9.468,6.346c-1.148.449-2.366.717-3.528,1.135a35.887,35.887,0,0,0-7.942,4.324c-3.4,2.316-6.732,4.736-10.125,7.065a99.763,99.763,0,0,1-18.326,9.891,125.326,125.326,0,0,1-24.708,7.115c-.95.181-1.9.336-2.856.5ZM114.99,220.4a2.75,2.75,0,0,1-.59-.324,4.966,4.966,0,0,1-.524-.666l-.99.788c.568,1.265.158,2.455-.034,3.687l.854.723.79-.679c-.1-1.233-.34-2.466.478-3.555a4.129,4.129,0,0,1,.382,1.074,10.363,10.363,0,0,1-.1,1.729,1.5,1.5,0,0,0,.774,1.6l.851-.755a5.258,5.258,0,0,1,.093-3.661l-.974-.823c-.3.224-.569.41-.823.612A1.214,1.214,0,0,0,114.99,220.4ZM202,114.376c.025-.378.063-.7.063-1.02q0-21.921-.011-43.843a6.9,6.9,0,0,0-3.326-6.048q-18-11.7-36.009-23.4-14.934-9.708-29.861-19.426c-.29-.189-.6-.347-.93-.536-.258,1.074-.241,95.462.021,96.464.394,0,.823,0,1.251,0,5.027-.048,10.053-.086,15.08-.15q6.719-.084,13.437-.217c3.058-.058,6.116-.137,9.173-.22,2.184-.059,4.367-.124,6.549-.217,5.019-.214,10.037-.43,15.053-.677,2.763-.136,5.522-.332,8.282-.513C201.166,114.549,201.555,114.45,202,114.376ZM123.781,20.06c-.418.248-.821.468-1.2.718q-6.276,4.08-12.545,8.17-13.008,8.46-26.019,16.914-7.376,4.8-14.752,9.588C65.139,58.131,61.01,60.8,56.9,63.5a6.787,6.787,0,0,0-3.24,5.969q-.006,21.924,0,43.848c0,.35.033.7.052,1.064.507.081.9.171,1.3.2,2.031.153,4.062.316,6.095.43,4.214.237,8.428.474,12.643.658,4.182.182,8.366.31,12.549.44q4.531.139,9.063.219c4.771.086,9.541.174,14.312.215,4.41.038,8.82.018,13.231.018.317,0,.634-.048.927-.072C124.081,115.364,124.052,21.018,123.781,20.06Zm78.308,116.36c-.347-.02-.491-.044-.633-.034-2.791.2-5.581.418-8.373.592q-4.246.264-8.5.451-5.4.246-10.793.439c-2.508.092-5.018.159-7.528.219-3.493.084-6.986.177-10.48.216-4.7.052-9.4.044-14.1.085-3.057.026-6.114.091-9.171.148a4.317,4.317,0,0,0-.693.123c-.221,2.179-.121,75.408.114,76.29.335.016.693.058,1.049.047q1.8-.056,3.6-.144c2.686-.137,5.38-.205,8.057-.446,4.452-.4,8.894-.9,13.338-1.385,1-.109,1.987-.327,3.094-.514V203.7h1.41c5.613,0,11.225-.01,16.838.012a3.272,3.272,0,0,0,1.929-.586q8.676-5.8,17.378-11.56a7.359,7.359,0,0,0,3.461-6.539q.012-23.671,0-47.342Zm-78.165,78.57V138.609c-1.41-.077-2.746-.2-4.082-.215-7.284-.09-14.568-.142-21.852-.232-3.275-.041-6.55-.134-9.825-.215q-3.875-.095-7.747-.22-2.781-.09-5.561-.215c-3.16-.14-6.321-.277-9.481-.443-2.722-.142-5.443-.32-8.165-.485-1.145-.069-2.289-.144-3.555-.224v1.323q0,23.835,0,47.67A6.906,6.906,0,0,0,56.9,191.43q8.865,5.911,17.724,11.831a3.421,3.421,0,0,0,2.036.6c5.685-.022,11.371-.013,17.056-.01.423,0,.846.027,1.348.043v1.2c0,2.259-.008,4.519,0,6.778.005.81.046.835.851.956,1.438.215,2.873.461,4.317.63,5.453.637,10.917,1.144,16.407,1.337,1.235.044,2.467.159,3.7.2C121.508,215.017,122.667,214.99,123.924,214.99ZM50.288,114.184v-1.515q0-22.968-.01-45.934A6.845,6.845,0,0,1,53.6,60.608q3.252-2.115,6.507-4.224,9.979-6.5,19.956-13.01,13.507-8.794,27.02-17.582,8.837-5.754,17.67-11.514a5.288,5.288,0,0,1,6.246.049c2.7,1.789,5.425,3.552,8.142,5.32q12.408,8.078,24.821,16.151,12.685,8.253,25.373,16.506c4.243,2.761,8.475,5.541,12.731,8.285a6.9,6.9,0,0,1,3.388,6.105c.021,6.635.007,13.27.007,19.9q0,13.07,0,26.139c0,.457.043.913.07,1.454l4.727-.519V90.158q0-13.617.008-27.233a7.134,7.134,0,0,0-3.428-6.421c-3.547-2.3-7.074-4.623-10.614-6.929q-13.14-8.559-26.283-17.111-12.635-8.232-25.263-16.475c-4.547-2.964-9.082-5.945-13.652-8.872a5.682,5.682,0,0,0-6.49.052c-3.047,1.927-6.05,3.925-9.071,5.894q-9.7,6.324-19.408,12.651L65.85,45.411q-8.559,5.581-17.116,11.165a6.874,6.874,0,0,0-3.316,6.041q-.015,8.366,0,16.733,0,16.459,0,32.919c0,.459.036.918.057,1.427Zm170.834,80.787a3.178,3.178,0,0,0,.592-.4c3.113-3.811,4.36-8.015,2.623-12.812a21.052,21.052,0,0,1-.9-10.537c.353-2.3.908-4.573,1.144-6.882A96.97,96.97,0,0,1,227.3,150.77c.076-.305.21-.6.373-1.051.607.9,1.133,1.665,1.646,2.439,1.245,1.881,2.567,3.718,3.705,5.661a11.589,11.589,0,0,1,1.494,8.919,6.69,6.69,0,0,0-.064.935,5.564,5.564,0,0,0,.659-.664q.5-.778.951-1.592a10.86,10.86,0,0,0,1.438-5.095,8.448,8.448,0,0,0-1.786-5.172c-.429-.587-.86-1.175-1.244-1.792a16.863,16.863,0,0,1-2.33-8.752c-.058-2.55.014-5.1-.021-7.652-.026-1.89-.157-3.779-.191-5.669a9.723,9.723,0,0,1,.146-2.966c1.568,1.2,3.08,2.274,4.5,3.462A13.057,13.057,0,0,1,240.1,135.9c.8,1.629,1.441,3.336,2.152,5.009a4.257,4.257,0,0,0,.648-1.58c.646-3.141.063-5.853-2.745-7.786a9.5,9.5,0,0,1-1.162-.99,14.058,14.058,0,0,1-3.236-4.752,1.123,1.123,0,0,0-1.25-.776c-1.275.04-2.551.011-3.826.011h-1.457c-.028.5-.065.854-.066,1.208-.007,1.348-.054,2.7.015,4.044a1.493,1.493,0,0,1-.983,1.631,15.971,15.971,0,0,1-2.541.969c-2.763.631-5.544,1.188-8.323,1.745-.984.2-1.985.311-3.046.472v46.559a6.964,6.964,0,0,0,.01.765,3.424,3.424,0,0,0,.159.558l.228.043c1.1-2.541,2.2-5.081,3.351-7.738a4.31,4.31,0,0,1,.29.483c.667,1.692,1.344,3.38,1.99,5.081a20.473,20.473,0,0,1,.822,13.267A3.952,3.952,0,0,0,221.122,194.971ZM28.36,149.721a9.394,9.394,0,0,1,.35.935c.545,2.227,1.156,4.44,1.595,6.688.521,2.674.9,5.377,1.324,8.07.384,2.442.785,4.882,1.111,7.333a19.681,19.681,0,0,1-.991,8.921A16.039,16.039,0,0,0,31,184.841c-.435,3.716,1,6.835,3.267,9.653a3.6,3.6,0,0,0,.771.482c-.143-.737-.221-1.23-.335-1.713a17.769,17.769,0,0,1,.07-9.177c.619-2.127,1.408-4.207,2.148-6.3.285-.805.645-1.584,1.044-2.55.263.576.447.961.617,1.353.736,1.7,1.464,3.412,2.209,5.113a4.916,4.916,0,0,0,.54.71V135.1c-.475-.083-.9-.155-1.323-.232-2.826-.517-5.667-.967-8.471-1.582a30.611,30.611,0,0,1-4.012-1.388,1.46,1.46,0,0,1-1.018-1.61c.056-1.091.014-2.187.014-3.281,0-.609,0-1.218,0-1.743-.2-.117-.264-.182-.325-.183-1.676-.017-3.353-.022-5.028-.044-.455-.006-.62.292-.794.627-.419.808-.82,1.628-1.291,2.406a13.983,13.983,0,0,1-3.577,3.794,5.945,5.945,0,0,0-2.485,3.85,10.582,10.582,0,0,0,.361,4.63,3.355,3.355,0,0,0,.371.647c.76-1.784,1.409-3.507,2.22-5.15a13.644,13.644,0,0,1,3.544-4.112,35.038,35.038,0,0,1,4.533-3.35c.034.444.082.727.072,1.008-.037,1.054-.121,2.106-.135,3.16-.04,2.988-.043,5.976-.084,8.964-.022,1.637-.038,3.277-.153,4.908a15.213,15.213,0,0,1-2.887,8.01,19.449,19.449,0,0,0-1.424,2.194,7.393,7.393,0,0,0-.893,4,12.938,12.938,0,0,0,2.246,6.191,7.716,7.716,0,0,0,.577.7.992.992,0,0,0,.153-.771,11.584,11.584,0,0,1,1.486-8.922c1.134-1.948,2.46-3.783,3.7-5.665C27.225,151.388,27.752,150.621,28.36,149.721ZM193.5,218.765c-.5.024-.851.055-1.208.056-1.931,0-3.863.032-5.793-.011a3.632,3.632,0,0,0-2.233.664c-4.467,3.016-8.961,5.992-13.446,8.982q-9.547,6.362-19.091,12.726c-.34.227-.654.491-.98.738l.113.265a11.231,11.231,0,0,0,1.248-.106c3.927-.761,7.873-1.44,11.771-2.328a90.151,90.151,0,0,0,25.856-10.017A70.076,70.076,0,0,0,204,218.971a11.3,11.3,0,0,0,3.678-7.229c.194-2.537.345-5.076.506-7.615,0-.086-.088-.178-.168-.328a5.2,5.2,0,0,0-.682.321c-4.4,2.925-8.783,5.865-13.188,8.777a1.3,1.3,0,0,0-.653,1.254C193.521,215.642,193.5,217.134,193.5,218.765ZM104.856,242.1l.083-.191c-.269-.213-.525-.447-.809-.637q-16.276-10.858-32.551-21.719a3.058,3.058,0,0,0-1.835-.537c-2.114.027-4.229.014-6.343.005-.383,0-.765-.054-1.229-.09,0-1.691-.02-3.256.011-4.819a1.309,1.309,0,0,0-.656-1.257c-4.256-2.812-8.5-5.65-12.743-8.474a7.452,7.452,0,0,0-.819-.405,2.822,2.822,0,0,0-.12.607c.133,2.177.257,4.356.424,6.531a10.047,10.047,0,0,0,2.285,6.134,44.918,44.918,0,0,0,4.2,4.282A81.753,81.753,0,0,0,82,236.874a132.032,132.032,0,0,0,21.952,5.219A5.863,5.863,0,0,0,104.856,242.1ZM214.349,68.6V113.07a6.716,6.716,0,0,0,1.124-.009c3.182-.573,6.372-1.113,9.535-1.782a21.333,21.333,0,0,0,3.479-1.25,1.213,1.213,0,0,0,.929-1.09c-.328-.16-.667-.352-1.025-.495q-5.823-2.34-11.65-4.668c-.318-.127-.624-.282-.936-.425,2.708-.125,5.367-.113,8.025-.128,2.638-.015,5.279.066,8.162-.062-2.2-3.719-4.193-7.3-5.982-11.021,1.8.511,3.489,1.143,5.2,1.711A51.868,51.868,0,0,0,236.53,95.6a17.766,17.766,0,0,0-1.55-3.836,6.209,6.209,0,0,0-4.89-3.258,6.361,6.361,0,0,1-4.026-1.981c-2.614-2.735-5.182-5.514-7.761-8.282a7.671,7.671,0,0,1-.579-.842l9.356.847c-.23-.911-.948-1.233-1.447-1.7C223.147,74.221,215.665,68.953,214.349,68.6ZM26.11,108.964c.341.379.5.683.745.805a18.249,18.249,0,0,0,2.586,1.136,56.2,56.2,0,0,0,9.5,1.958,5.812,5.812,0,0,0,2.394.168c.021-.293.056-.541.055-.788q-.035-21.639-.078-43.276a.132.132,0,0,0-.059-.083,1.043,1.043,0,0,0-.189-.073,7.176,7.176,0,0,0-.687.369c-.847.566-1.687,1.143-2.526,1.722a64.506,64.506,0,0,0-8.431,6.569,9.193,9.193,0,0,0-.625.8l9.634-.866c-.464.542-.731.88-1.025,1.193-2.389,2.548-4.8,5.078-7.17,7.641a6.723,6.723,0,0,1-4.33,2.281,5.965,5.965,0,0,0-3.826,1.9,11.445,11.445,0,0,0-2.423,4.824c-.021.071.088.18.186.366l10.126-3.558.173.2L28.18,95.831c-.662,1.214-1.342,2.419-1.979,3.646a41.221,41.221,0,0,0-2.089,3.752H39.806l.018.2Zm67.144,118.6-.08.276c.248.194.484.405.745.579q15.365,10.248,30.74,20.483a5.22,5.22,0,0,0,1.467.7,6.1,6.1,0,0,0,5.291-.916c6.314-4.255,12.662-8.459,19-12.683q5.729-3.819,11.454-7.644c.309-.206.737-.332.779-.86a1.94,1.94,0,0,0-.448-.047c-3.674.5-7.345,1.025-11.021,1.511a5.9,5.9,0,0,0-2.606.988q-8.794,5.919-17.634,11.772a5.843,5.843,0,0,1-.938.553,5.2,5.2,0,0,1-5.192-.489q-9.044-6.036-18.09-12.067a3.549,3.549,0,0,0-1.594-.623c-3.176-.384-6.346-.818-9.518-1.233C94.822,227.764,94.038,227.667,93.254,227.567Zm-26.008-23.8.086-.261c-.339-.242-.67-.5-1.016-.725-4.18-2.79-8.346-5.6-12.549-8.353a7.193,7.193,0,0,1-3.5-6.475q.05-25.248.014-50.5c0-.459-.037-.919-.058-1.418l-4.756-.469c-.021.455-.054.843-.054,1.232q0,27.762,0,55.525a6.68,6.68,0,0,0,2.978,5.78c4.3,2.938,8.655,5.791,12.992,8.672a5.129,5.129,0,0,0,.807.329v-3.191C63.957,203.733,65.616,203.971,67.246,203.769Zm126.268,3.371c.635-.36,1.044-.559,1.42-.809,3.884-2.58,7.743-5.2,11.651-7.744a7.581,7.581,0,0,0,3.688-6.849q-.052-27.285-.017-54.568c0-.292.017-.585-.009-.875a5.762,5.762,0,0,0-.149-.714l-4.641.467V137.6q0,25.261,0,50.522a7.029,7.029,0,0,1-2.387,5.423,13.2,13.2,0,0,1-1.594,1.146q-5.952,3.978-11.908,7.949c-.335.225-.792.361-.914,1.01l4.857.088ZM126.181,19.36a2.768,2.768,0,0,0-.058.411q0,48.054,0,96.108a2.516,2.516,0,0,0,.061.43.238.238,0,0,0,.056.089c.022.029.048.055.078.088h3.095c.222-1.271.173-96.423-.03-97.2A2.815,2.815,0,0,0,126.181,19.36Zm.1,119.244c-.239,1.088-.217,75.419.021,76.33h3.155V138.6Zm-34.76-7.023a1.924,1.924,0,0,1-.666-1.627c.059-1.274.084-2.55.086-3.825a1.1,1.1,0,0,1,.848-1.185,1.767,1.767,0,0,1,.964,1.849c-.014,2.076-.069,4.152-.13,6.228a4.834,4.834,0,0,1-.2,1.071,2.4,2.4,0,0,1-2.494,2.134c-.047.006-.085.084-.259.266a6.915,6.915,0,0,0,1.128.079,4.824,4.824,0,0,0,4.314-4.851c.093-1.781.068-3.569.082-5.354a4.054,4.054,0,0,0-1.9-3.25,6.418,6.418,0,0,1-2.323,1.664c0-.781-.009-1.463,0-2.145.011-.655.019-1.312.074-1.964a2.177,2.177,0,0,1,.26-.824.522.522,0,0,1,.754-.216,3.334,3.334,0,0,0-.323.37,1.026,1.026,0,0,0,.032,1.388,1.058,1.058,0,0,0,1.309.075,1.129,1.129,0,0,0,.257-1.476,1.693,1.693,0,0,0-1.421-.88,3.022,3.022,0,0,0-3.371,2.913c-.064,2.44-.073,4.882-.086,7.323-.005.835.028,1.666-.6,2.167l1.806,1.619Zm-9.012,76.441-.055.311c1.3.849,2.605,1.7,3.917,2.54a1.842,1.842,0,0,0,.624.187c2.141.431,4.281.862,6.425,1.277.378.073.77.076,1.286.123-.03-2.712.059-5.305-.067-8.042Zm78.954,4.384c2.186-.425,4.172-.836,6.169-1.189a7.95,7.95,0,0,0,3.555-1.528c.709-.547,1.481-1.013,2.224-1.515l-.032-.249-11.916-3.661Zm2.046-79.168c.784-.543,1.477-1.06,2.207-1.52a2.668,2.668,0,0,0,1.371-2.444c-.016-1.094-.006-2.188-.028-3.281a3.58,3.58,0,0,0-1.756-3.056l-2.415,2.047-1.38-2.068c-.829.724-1.565,1.363-2.291,2.014-.053.048-.021.189-.033.331l.856-.364a11.542,11.542,0,0,1,.385,1.741c.067,1.054.017,2.115.057,3.171a2.044,2.044,0,0,1-.563,1.676,1.912,1.912,0,0,0-.636,1.754c.519-.155.463-.951,1.194-.794l.179,4.5c.425-.4.677-.641.932-.878.427-.4,1.008-.718,1.242-1.206a5.744,5.744,0,0,0,.224-1.825Zm-56.87-10.131-2.227,1.952.11.161.736-.125a3.6,3.6,0,0,1,.238.862c.014,1.385.025,2.771-.03,4.154a1.606,1.606,0,0,1-1.313,1.531,1.551,1.551,0,0,1-.638-1.555c0-1.348.04-2.7.068-4.045a3.422,3.422,0,0,0-1.405-2.905l-2.251,1.931.074.143.878-.111a10.954,10.954,0,0,1,.225,1.419c.022.8-.028,1.6-.043,2.405a5.855,5.855,0,0,1-.846,3.727l.862-.48,1.468,1.5,2.8-2.225a3.569,3.569,0,0,0,1.655,2.144,10.988,10.988,0,0,0,2.218-2.515l-1.029.421a10.492,10.492,0,0,1-.2-1.323c-.019-1.093.05-2.189,0-3.28a3.213,3.213,0,0,1,.89-2.69c.025-.023-.021-.123-.052-.273l-.842.633Zm71.668-.464-2.965,2.43a4,4,0,0,0-1.47-2.251l-2.308,2.143c.969.028,1.109.1,1.168.861.093,1.2.1,2.4.166,3.6a2.611,2.611,0,0,1-.592,2.213l1.986,1.513,1.753-1.716a1.649,1.649,0,0,1-.665-1.53c-.01-1.019-.039-2.039-.116-3.055a1.906,1.906,0,0,1,1.3-2.123,2.037,2.037,0,0,1,.688,1.78c.036,1.2.113,2.406.045,3.6a3.232,3.232,0,0,0,1.674,3.056c.671-.766,1.337-1.522,1.992-2.287.049-.058.018-.184.029-.351l-.917.518a9.394,9.394,0,0,1-.271-1.334c-.05-.945-.009-1.894-.067-2.838a3.57,3.57,0,0,1,.789-2.949c.027-.028-.021-.128-.051-.283l-.774.542ZM65.3,124.258l-.011.3c.673-.336.9,0,.978.487a6.428,6.428,0,0,1,.062,1.193c-.029.984-.1,1.966-.123,2.949-.014.74-.051,1.451-.734,1.861l1.929,1.7,1.731-1.521a4.269,4.269,0,0,1-.436-1.264c-.02-1.274.078-2.548.109-3.823a1.69,1.69,0,0,1,1.386-1.669,1.891,1.891,0,0,1,.561,1.642c-.047,1.311-.049,2.627-.177,3.93a3.18,3.18,0,0,0,1.547,3.007c.684-.7,1.345-1.378,2-2.061a3.064,3.064,0,0,0,.283-.562l-1.063.56a7.2,7.2,0,0,1-.238-1.3c.006-1.019.128-2.039.114-3.058a3.354,3.354,0,0,1,.927-2.691c.048-.046.006-.187.006-.4l-.788.577-1.335-1.617-3.03,2.19a4.4,4.4,0,0,0-1.4-2.271Zm57.469,3.393a5.325,5.325,0,1,0,5.339-5.313A5.239,5.239,0,0,0,122.766,127.651Zm66.717-5.275c-.789.529-1.515,1-2.228,1.5a10.693,10.693,0,0,0-1.21.922,2.284,2.284,0,0,0-.673,2.1A1.684,1.684,0,0,0,187.9,128.2c.257-.133.482-.327.732-.474.567-.335,1.028-.175,1.114.462.1.776.095,1.568.137,2.4-2.414-.947-4.324-.072-4.567,1.943.491-.263,1.02-.78,1.518-.751.569.032,1.11.55,1.629.837.878-.554,1.774-1.1,2.653-1.678a2.783,2.783,0,0,0,.943-3.638,1.661,1.661,0,0,0-2.534-.746c-.364.219-.716.459-1.157.744a4.773,4.773,0,0,1-.389-2.865,1.953,1.953,0,0,0,2.491.2,2.516,2.516,0,0,0,1.222-2.311C190.573,123.622,190.375,123.622,189.483,122.376ZM82.2,122.97c.132-1.364-.437-2.824,1.054-3.845a3.23,3.23,0,0,0-2.534,1.152,3.973,3.973,0,0,0-1.043,2.647l-.967.259c.047.717.047.717.906.978.01.23.036.479.03.727-.031,1.311-.106,2.623-.093,3.933a4.248,4.248,0,0,1-.909,3.247c-.01.01.023.06.07.175l.82-.527,1.461,1.573c.641-.5,1.184-.924,1.718-1.354a9.005,9.005,0,0,0,.728-.652c.051-.052.016-.188.023-.339l-.726.325a1.326,1.326,0,0,1-.713-1.168c.037-1.893.1-3.785.157-5.677,0-.094.1-.184.158-.3l.926-.142C83.274,123.211,83.274,123.211,82.2,122.97Zm41.458,112.908.248-.171v-5.486c-2.9,0-5.719-.343-8.545-.189l-.077.267Zm8.216-5.65a20.124,20.124,0,0,0,.123,5.652c.715-.471,1.4-.921,2.083-1.373q1.089-.72,2.177-1.445c.694-.462,1.41-.9,2.077-1.4a6.1,6.1,0,0,0,2.109-1.731Zm20.606-107.2c-.815.965-1.85,1.477-2.358,2.557l.685-.351c.52.326.492.815.5,1.285.022,1.416.042,2.832.052,4.248a2.856,2.856,0,0,0,1.523,2.745c.717-.65,1.389-1.254,2.05-1.87.053-.049.027-.181.044-.324l-.852.305a10.32,10.32,0,0,1-.292-1.526c-.046-1.27-.064-2.543-.016-3.812a4.407,4.407,0,0,1,.4-1.32,3.8,3.8,0,0,1,.375-.613l-.105-.1-.666.4ZM129.537,237.177c0-2.3.04-4.564-.03-6.85h-3.3v6.857A5.038,5.038,0,0,0,129.537,237.177Zm17.905-11.9a4.517,4.517,0,0,0,.34-.515.654.654,0,0,0-.2-.871.563.563,0,0,0-.865.08,1.116,1.116,0,0,0-.145.875,1.377,1.377,0,0,0,.7.625,1.806,1.806,0,0,0,2.247-.834,5.259,5.259,0,0,0-.236-5.181,1.773,1.773,0,0,0-1.92-.715,1.7,1.7,0,0,0-1.324,1.437,4.7,4.7,0,0,0-.022,1.512c.2,1.393,1.063,1.875,2.4,1.4.047-.017.121.042.182.066C148.841,224.591,148.7,225.509,147.442,225.28Zm-2.9-3.313.082-.018a12.041,12.041,0,0,0-.415-1.565,1.981,1.981,0,0,0-2.074-1.273,1.942,1.942,0,0,0-1.762,1.544,5.872,5.872,0,0,0-.045,1.935,2.141,2.141,0,0,0,2.183,2.01,2.239,2.239,0,0,0,2.029-2.2A4.226,4.226,0,0,0,144.542,221.967Zm-5.552.3a10.878,10.878,0,0,0-.317-1.469,2.019,2.019,0,0,0-3.853.043,3.777,3.777,0,0,0,.134,2.865,2.043,2.043,0,0,0,3.75-.145A9.721,9.721,0,0,0,138.99,222.263Zm-8.93.675c.731-.234,1.41-.455,2.091-.67a1.228,1.228,0,0,0,.943-1.2,1.292,1.292,0,0,0-.88-1.26,2.787,2.787,0,0,0-2.331.02,1.184,1.184,0,0,0-.634,1.55.706.706,0,0,0,.88.459,1.133,1.133,0,0,0,.645-.6c.133-.4-.144-.685-.555-.781a4.553,4.553,0,0,0-.595-.045,2.89,2.89,0,0,1,.428-.2c.713-.164,1.14,0,1.364.527a1.012,1.012,0,0,1-.475,1.305c-.294.212-.636.359-.921.581a2.075,2.075,0,0,0-.8,2.136c.69-.885.69-.885,1.564-.18.658.53,1.114.607,1.688.286a1.59,1.59,0,0,0,.779-1.768c-.6.647-.583.6-1.33.3A13.572,13.572,0,0,0,130.06,222.938Zm-23.069-3.852c-.167.081-.506.22-.818.405a4.091,4.091,0,0,0-.968.681.953.953,0,0,0-.108,1.214.894.894,0,0,0,1.145.357c.2-.061.4-.116.689-.2v1.289c-1.392-.31-1.756-.177-2.139.625l1.553.454c.335-.157.8-.373,1.256-.591a1.225,1.225,0,0,0,.191-.106,1.467,1.467,0,0,0,.462-1.755c-.261-.557-.608-.638-1.468-.351a1.979,1.979,0,0,1-.413.023l.066-.944c1.265.144,1.4.078,1.893-.823Zm17.1.672c-.878.7-2.042,1.129-2.006,2.6.026,1.065.072,2.05,1.234,2.664l1.413-1.068c-.856,0-.856,0-1.18-.711C125.26,221.241,125.328,220.828,124.086,219.758Zm-3.613,4.27c-1.274-.766-.8-1.878-.829-2.889,1.175,0,1.215-.029,1.536-.931l-.938-.4c-.961.668-2.092,1.158-2.027,2.676a2.7,2.7,0,0,0,1.155,2.409Zm-9.156-.254a14.2,14.2,0,0,1-.15-1.465,5.3,5.3,0,0,1,.151-1.4,1.425,1.425,0,0,0-.657-1.705l-.891.674a10.425,10.425,0,0,1,.159,1.285c0,.578-.068,1.157-.118,1.734a1.428,1.428,0,0,0,.764,1.538Zm42.533-102.51a1.246,1.246,0,0,0-1.24-1.258A1.262,1.262,0,0,0,151.4,121.3a1.225,1.225,0,0,0,2.449-.034Zm-42.932,97.908c.273-.428.534-.663.564-.925a.6.6,0,1,0-1.2.048C110.329,218.554,110.609,218.767,110.918,219.172Z"/><path class="cls-1" d="M151.708,74.471a14.271,14.271,0,0,1,17.65-6.261,14.351,14.351,0,0,1-6.535,27.664c6.616-1.708,10.453-5.785,10.547-12.612A11.635,11.635,0,0,0,165.9,71.8C160.743,69.584,156,70.645,151.708,74.471Z"/><path class="cls-1" d="M166.071,91.683a9.777,9.777,0,0,1-12.373-.842,9.925,9.925,0,0,1-1.259-13.192c2.732-3.805,8.14-5.184,12.043-3.127a8.991,8.991,0,0,0-8.249,3.125,8.557,8.557,0,0,0-1.881,6.955,8.42,8.42,0,0,0,4.115,6.256A9.265,9.265,0,0,0,166.071,91.683Z"/><path class="cls-1" d="M167.858,99.118c-.269.456-.446.767-.634,1.071a5.7,5.7,0,0,0-.583,5.33,5.324,5.324,0,0,1-2,6.2,1.748,1.748,0,0,1-.132-.383,7.643,7.643,0,0,0-2.2-4.513,16.975,16.975,0,0,1-2.035-2.675,4.278,4.278,0,0,1-.267-4.174c.426-.926.526-.955,1.5-.809a18.579,18.579,0,0,0,5.751-.018C167.4,99.126,167.545,99.133,167.858,99.118Z"/><path class="cls-1" d="M181.946,57.161a1.135,1.135,0,0,1-.076.306,8.037,8.037,0,0,0-.745,5.5,8.091,8.091,0,0,1-.152,3.564,4.433,4.433,0,0,1-2.485,3,.79.79,0,0,1-.99-.091,31.944,31.944,0,0,0-2.537-2.221c-.9-.667-1.888-1.2-2.933-1.852l.735-.282a6.276,6.276,0,0,0,4.051-4.236,5.2,5.2,0,0,1,4.922-3.77A.638.638,0,0,1,181.946,57.161Z"/><path class="cls-1" d="M157.364,65.156a18.44,18.44,0,0,0-5.938,4.224c-.091-.718-.166-1.274-.231-1.831a5.394,5.394,0,0,0-2.6-4.212,5.323,5.323,0,0,1-1.951-6.124,5.651,5.651,0,0,1,.579.473,6.816,6.816,0,0,0,3.883,2.042,10.806,10.806,0,0,1,4.186,1.461A4.356,4.356,0,0,1,157.364,65.156Z"/><path class="cls-1" d="M135.86,90.95c.009-.032.008-.086.027-.095a8.665,8.665,0,0,0,4.176-4.276A6.96,6.96,0,0,1,143,83.433a3.758,3.758,0,0,1,3.62-.157,19.883,19.883,0,0,0,2.164,6.914c-.746-.157-1.326-.32-1.918-.394a6.091,6.091,0,0,0-4.99,1.4C140.387,92.488,137.805,92.424,135.86,90.95Z"/><path class="cls-1" d="M182.081,83.733c.406.5.641.811.9,1.1a5.737,5.737,0,0,0,5,2.178c2.213-.2,4.385,1.625,5.121,3.866a3.906,3.906,0,0,1-.645-.035,6.785,6.785,0,0,0-4.448.6,11.554,11.554,0,0,1-4.018,1.293,4.321,4.321,0,0,1-4.192-2.022A18.811,18.811,0,0,0,182.081,83.733Z"/><path class="cls-1" d="M177.7,93.911c0,1.23-.06,2.464.013,3.689a12.141,12.141,0,0,0,2.428,7.11c.383.478.83.905,1.283,1.394-.031.019-.086.081-.13.075-3.195-.458-6.051-1.585-8.1-4.224a8.021,8.021,0,0,1-1.606-3.992A19.861,19.861,0,0,0,177.49,93.8Z"/><path class="cls-1" d="M148.979,72.581A19.525,19.525,0,0,0,146.66,79.6c-2.627-3.836-5.4-7.265-10.6-7.845a12.973,12.973,0,0,1,7.206-1.91A8.357,8.357,0,0,1,148.979,72.581Z"/><path class="cls-1" d="M165.168,51.932c3.979,3.5,5.33,8.52,3,12.181a20.641,20.641,0,0,0-7.335-.028,24.047,24.047,0,0,0,3.573-5.754A11.352,11.352,0,0,0,165.168,51.932Z"/><path class="cls-1" d="M146.389,105.453c-1.265-4.47.375-10.2,4.757-11.919a17.83,17.83,0,0,0,5.882,4.286c-.388.157-.585.261-.795.319a20.522,20.522,0,0,0-5.511,2.318A10.189,10.189,0,0,0,146.389,105.453Z"/><path class="cls-1" d="M193.045,72.933c-2.147,4.815-6.6,7.9-10.8,6.823-.26-1.144-.459-2.329-.808-3.468s-.85-2.237-1.324-3.454c.313.089.578.15.833.239a19.84,19.84,0,0,0,6.5,1.287,10.019,10.019,0,0,0,5.041-1.188C192.611,73.1,192.747,73.06,193.045,72.933Z"/><path class="cls-1" d="M89.246,51.454a14.357,14.357,0,0,1,4.7,8.65c.216,1.508.2,3.051.427,4.557a13.827,13.827,0,0,0,3.47,7.173,5.349,5.349,0,0,0,.566.488c.554-.755.554-.755.273-5.624,2.3,1.139,5.175,6.2,5.147,10.527A14.4,14.4,0,0,1,96.07,89.842a7.575,7.575,0,0,0,.069-7.247,4.709,4.709,0,0,0-2.09-2.272v2.759A6.117,6.117,0,0,1,92.3,79.6c-.1-.607-.118-1.229-.166-1.845a7.127,7.127,0,0,0-2.319-4.682,3,3,0,0,0-.676-.335c.079.388.1.628.177.852A4.7,4.7,0,0,1,87.9,78.748c-.286.279-.606.523-.9.8a6.909,6.909,0,0,0-2.291,5.244c0,.145-.011.29-.022.435a1.4,1.4,0,0,1-.085.217,2.309,2.309,0,0,1-.738-1.256,6.271,6.271,0,0,1-.257-1.606c-.017-.481.093-.968.031-1.488a5.887,5.887,0,0,0-2.191,4.493,7.165,7.165,0,0,0,1.462,4.985c-3.394-.829-7.54-4.84-8.8-9.22C72.7,76.442,73.788,72.107,76.989,68A2.909,2.909,0,0,1,77,69.5a10,10,0,0,0,2.455,7.675,4.274,4.274,0,0,0,.692.51,4.539,4.539,0,0,0,.047-.738,13.948,13.948,0,0,1,4.926-12.882,21.641,21.641,0,0,0,2.228-2.077,9.978,9.978,0,0,0,1.944-9.91,2.639,2.639,0,0,1-.069-.32A2.22,2.22,0,0,1,89.246,51.454Z"/><path class="cls-1" d="M99.188,107.072c.014.276.016.453.035.628s.053.348.078.509c-13.54,5.883-29.085-2.611-31.947-15.28a23.177,23.177,0,0,1,12.336.183,24.432,24.432,0,0,1,10.619,6.2c.916-.713,1.723-1.387,2.577-2A23.478,23.478,0,0,1,108.871,93a2.093,2.093,0,0,1,.541.061,2.089,2.089,0,0,0,2.726-1.119c.364-.588.759-1.156,1.145-1.73a1.92,1.92,0,0,1,1.471-.993,5.312,5.312,0,0,1-.953,1.638,26.926,26.926,0,0,1-6.5,5.936,43.3,43.3,0,0,1-6.966,3.852,8.064,8.064,0,0,0-.773.4,2.951,2.951,0,0,0-.385.408c.655-.15,1.13-.218,1.579-.368a37.851,37.851,0,0,0,9.694-4.934q.269-.187.541-.366a.932.932,0,0,1,.208-.038,2.957,2.957,0,0,1-.128.56,22.211,22.211,0,0,1-5.9,7.627c-.346.294-.792.506-.75,1.115.011.165-.344.439-.58.522-1.3.455-2.62.866-3.934,1.291C99.7,106.928,99.5,106.982,99.188,107.072ZM77.422,98.927a23.031,23.031,0,0,0,9.3,6.1c3.751,1.306,9.1,1.744,10.966.889-.049-.049-.09-.118-.149-.142a4.68,4.68,0,0,0-.516-.176,12.1,12.1,0,0,1-6.285-4.123,17.881,17.881,0,0,0-1.7-1.841A22.816,22.816,0,0,0,71.99,93.357a9.252,9.252,0,0,0-3.3.509c.209.581.374,1.132.6,1.656a21.653,21.653,0,0,0,10.455,11.014,23.152,23.152,0,0,0,12.289,2.355,3.76,3.76,0,0,0,.7-.19A25.072,25.072,0,0,1,76.56,99.622Z"/><path class="cls-1" d="M165.936,196.919c.288-.261.583-.515.863-.785a61.173,61.173,0,0,0,8.752-10.153,12.594,12.594,0,0,1,4.615-3.748c.724-.414,1.509-.722,2.26-1.09a7.572,7.572,0,0,0,.663-.419c-1.165-.254-1.274-.224-5.388,1.456.135-.4.223-.714.348-1.016a55.686,55.686,0,0,0,3.669-14,3.09,3.09,0,0,0-.167-1.448c-.11.381-.227.76-.33,1.144-.661,2.456-1.312,4.916-1.986,7.369a14.053,14.053,0,0,1-.567,1.4,13.445,13.445,0,0,0-2.566-5.061,1.39,1.39,0,0,0,.08,1.306,16.625,16.625,0,0,1,1.113,6.083,4.248,4.248,0,0,1-.4,1.666,46.252,46.252,0,0,1-7.653,11.242c-1.305,1.417-2.671,2.777-4.056,4.212a2.788,2.788,0,0,1-.472-1.857,38.448,38.448,0,0,1,4.259-20.558,48.471,48.471,0,0,1,6.614-9.6,26.509,26.509,0,0,0,5.549-9.808c.517-1.776.853-3.606,1.272-5.41.022-.093.064-.181.173-.482.756,1.156,1.457,2.157,2.086,3.2a33.769,33.769,0,0,1,4.564,12.188,40.1,40.1,0,0,1,.141,12.169A44.511,44.511,0,0,1,185.738,187a13.92,13.92,0,0,1-6.424,6.707A28.248,28.248,0,0,1,166.7,197.15c-.213.007-.427-.02-.64-.032Z"/><path class="cls-1" d="M161.806,142.307c2.55,4.7,6.375,8.219,9.849,12.043-.848,0-1.649-.012-2.449,0a8.974,8.974,0,0,0-5.474,1.885,4.182,4.182,0,0,0-1.683,2.468,11.871,11.871,0,0,1-.427,1.255l-2.567-.757c-.21.759.58,1.009.793,1.619a3.02,3.02,0,0,1-1.63.31c-.4,0-.8-.014-1.2,0-.845.036-1.032.211-.976,1.071.047.719.19,1.432.286,2.113-1.338.959-1.515,1.416-1.125,2.886a1.546,1.546,0,0,0-.246,2.344c.441.612.107,1.33-.305,1.924a1.912,1.912,0,0,0-.372,1.736,1.663,1.663,0,0,0,1.607,1.382c.253.026.511,0,.765.017a4.553,4.553,0,0,1,3.462,1.8,13.572,13.572,0,0,1,2.741,7.03,34.85,34.85,0,0,1,.021,4.127,55.032,55.032,0,0,0,.144,8.181,2.228,2.228,0,0,1-.04.445C150.053,182.652,148.1,158.653,161.806,142.307Z"/><path class="cls-1" d="M149.65,187.01a7.948,7.948,0,0,0,.741.728,12.851,12.851,0,0,0,4.764,2.352,1.578,1.578,0,0,1,1.069.671,29.886,29.886,0,0,0,4.626,5.685c-3.518.409-11.835-4.254-15.746-8.739a27.525,27.525,0,0,1-6.587-21.928c.352.28.663.5.942.754a35.925,35.925,0,0,0,10.089,6.424A2.036,2.036,0,0,1,150.9,174.8c.354,2.4.95,4.772,1.454,7.154.059.277.148.547.23.843-1.361-1.308-2.652-2.611-4.011-3.839a15.433,15.433,0,0,0-4.52-3.124l-.177.163a3.565,3.565,0,0,0,.479.591c4.065,3.293,7.16,7.431,10.165,11.647a1.237,1.237,0,0,1,.085.364c-1.774-.209-3.205-1.2-4.763-1.831Z"/><path class="cls-1" d="M114.522,169.733c-.62-.343-.431-.674-.351-.979.184-.7.412-1.4.558-2.107a13.018,13.018,0,0,0-.241-6.9,10.9,10.9,0,0,0-6.473-6.7,29.212,29.212,0,0,0-3.326-1.054,7.19,7.19,0,0,0-1.275-.112,4.219,4.219,0,0,0,.243.714,32.055,32.055,0,0,1,3.327,8.165,3.206,3.206,0,0,0,.926,1.56,29.5,29.5,0,0,1,4.372,5.3c.21.322.428.637-.255.924-.618-.833-1.23-1.719-1.906-2.551a12.7,12.7,0,0,0-2.347-2.526,24.163,24.163,0,0,0,.351,3.763c.056,1.272.2,2.542.2,3.813,0,1.234-.14,2.467-.2,3.7a26.908,26.908,0,0,0-.367,3.822c1.886-1.616,3.017-3.571,4.407-5.348.655.376.408.764.151,1.108-.892,1.2-1.779,2.4-2.717,3.557-.549.677-1.222,1.253-1.777,1.925a4.036,4.036,0,0,0-.807,1.375,33.145,33.145,0,0,1-3.345,8.157,5.164,5.164,0,0,0-.276.689,3.566,3.566,0,0,0,.787.05,13.776,13.776,0,0,0,7.9-3.875,10.471,10.471,0,0,0,2.962-7.194,17.015,17.015,0,0,0-.881-5.8c-.113-.346-.44-.755.242-1.043.135.157.355.31.43.517,1.3,3.564,1.7,7.152.09,10.733a12.282,12.282,0,0,1-7.352,6.6,26.843,26.843,0,0,1-4.116,1.049,2.434,2.434,0,0,0-1.62.943,16.65,16.65,0,0,1-6.182,5.085,11.369,11.369,0,0,1-11.248-.807,15.657,15.657,0,0,1-4.092-3.58c-.275-.339-.388-.631.233-.866.265.286.553.6.845.909a13.374,13.374,0,0,0,7.387,4.372,10.915,10.915,0,0,0,7.3-1.143A15.432,15.432,0,0,0,100.813,192a4.106,4.106,0,0,0,.3-.544,4.545,4.545,0,0,0-.788-.134,30.821,30.821,0,0,1-8.729-1.222,2.847,2.847,0,0,0-1.6.008,32.782,32.782,0,0,1-6.321,1.173c-.254.022-.51.03-.764.028-.3,0-.675,0-.629-.394.021-.176.37-.374.606-.449a3.985,3.985,0,0,1,.969-.113,26.3,26.3,0,0,0,4.811-.783c.049-.559-.384-.55-.649-.653a39.241,39.241,0,0,1-7.305-3.671c-1.278-.836-2.494-1.766-3.743-2.647-.3-.212-.622-.4-.934-.595l-.229.172a15.5,15.5,0,0,0,.45,1.513c.552,1.345,1.138,2.677,1.723,4.009.154.351.335.68-.3.95a9.638,9.638,0,0,1-.663-1,35.465,35.465,0,0,1-2.422-6.427,2.721,2.721,0,0,0-.576-1.137,36.092,36.092,0,0,1-5.666-7.323c-.072-.127-.142-.254-.262-.472-.251.3-.432.434-.5.609a14.55,14.55,0,0,0-.753,8.258,10.535,10.535,0,0,0,5.513,7.227,17.1,17.1,0,0,0,4.606,1.661c.345.075.684.181,1.028.274.01.68-.35.762-.787.635a32.453,32.453,0,0,1-3.95-1.224,11.885,11.885,0,0,1-7.3-8.541,13.9,13.9,0,0,1,.767-8.249,4.833,4.833,0,0,0,.028-3.834,13.667,13.667,0,0,1-.588-9.09,11.951,11.951,0,0,1,7.047-7.728,34.1,34.1,0,0,1,3.844-1.2c.358-.109.714-.207.951.289-.17.489-.614.491-1.039.579a14.835,14.835,0,0,0-5.981,2.544,10.47,10.47,0,0,0-4.378,7.954,16.063,16.063,0,0,0,.914,6.443,3.163,3.163,0,0,0,.226.5c.03.053.116.075.258.161a3.094,3.094,0,0,0,.454-.506,32.537,32.537,0,0,1,5.351-6.877,3.129,3.129,0,0,0,.842-1.486A31.34,31.34,0,0,1,77,154.357a2.556,2.556,0,0,1,.375-.659c.122-.123.363-.127.552-.185.037.162.145.349.1.482-.154.445-.374.866-.55,1.305-.5,1.249-1,2.5-1.483,3.755a4.471,4.471,0,0,0-.153.719c.49.268.707-.1.984-.292,1.554-1.08,3.044-2.272,4.682-3.206,2.017-1.151,4.156-2.088,6.246-3.112.313-.153.64-.278,1.155-.5a3.813,3.813,0,0,0-.721-.342q-2.042-.35-4.089-.664c-.5-.077-1.016-.087-1.51-.194-.147-.032-.285-.277-.343-.452-.018-.055.232-.28.369-.291a5.388,5.388,0,0,1,1.307.018c1.968.343,3.938.686,5.892,1.1a3.818,3.818,0,0,0,1.917.012,28.138,28.138,0,0,1,8.294-1.17c.314.008.629-.042,1.057-.073a2.413,2.413,0,0,0-.225-.552,13.622,13.622,0,0,0-7.557-5.09,10.889,10.889,0,0,0-9.127,1.86,38.025,38.025,0,0,0-3.082,2.762c-.053.048-.081.124-.135.171-.208.18-.386.509-.725.249-.355-.272-.112-.521.092-.726a33.523,33.523,0,0,1,2.569-2.519,12.324,12.324,0,0,1,8.134-2.988,11.8,11.8,0,0,1,7.329,2.764,26.7,26.7,0,0,1,3.41,3.365,2.813,2.813,0,0,0,1.912,1.037,15.909,15.909,0,0,1,7.171,2.743,11.635,11.635,0,0,1,5.023,8.455,15.748,15.748,0,0,1-.893,6.752A5.222,5.222,0,0,1,114.522,169.733Zm-40.3,1.3A39.688,39.688,0,0,0,74.969,179a2.615,2.615,0,0,0,.816,1.612A40.782,40.782,0,0,0,90.207,188.8a2.3,2.3,0,0,0,1.253-.033,33.66,33.66,0,0,0,6.524-2.753,39.036,39.036,0,0,0,7.864-5.477,1.97,1.97,0,0,0,.72-1.283c.247-2.018.663-4.025.774-6.049a39.634,39.634,0,0,0-.807-10.633,1.909,1.909,0,0,0-.65-1.079,40.413,40.413,0,0,0-14.153-8.225,2.644,2.644,0,0,0-1.8,0,41.424,41.424,0,0,0-13.95,7.946,3.023,3.023,0,0,0-1.032,1.852A41.086,41.086,0,0,0,74.221,171.031ZM92.8,152.575c2.385,1.173,4.628,2.136,6.726,3.35,2.124,1.228,4.1,2.706,6.285,4.168a8.844,8.844,0,0,0-.172-.914,35.2,35.2,0,0,0-2.8-6.387,2.262,2.262,0,0,0-2.281-1.288,37.84,37.84,0,0,0-6.717.7A8.354,8.354,0,0,0,92.8,152.575ZM73.77,178.4c-.172-2.605-.456-5.022-.455-7.44,0-2.4.286-4.8.456-7.342a7.635,7.635,0,0,0-.729.613,30.823,30.823,0,0,0-4.223,5.94,1.6,1.6,0,0,0,.041,1.725,31.58,31.58,0,0,0,4.164,5.851A9.1,9.1,0,0,0,73.77,178.4Zm19.179,10.827c.183.229.217.318.27.331a27.656,27.656,0,0,0,8.212.8,1.11,1.11,0,0,0,.959-.584,29.463,29.463,0,0,0,3.186-6.913,3.9,3.9,0,0,0,.008-.905A43.431,43.431,0,0,1,92.949,189.227Z"/><path class="cls-1" d="M112.552,171.911v-1.932l1.5.914Z"/><path class="cls-1" d="M80.9,190.436l-1.582.861V189.59Z"/><path class="cls-1" d="M79.3,150.929l1.5.8-1.5.944Z"/><path class="cls-1" d="M163.735,124.9a1.343,1.343,0,0,1,.819,1.208c.051,1.688.02,3.379.02,5.172-.446-.261-.8-.5-1.184-.684a.76.76,0,0,1-.433-.8c0-1.2-.026-2.4-.034-3.6A1.292,1.292,0,0,1,163.735,124.9Z"/><path class="cls-1" d="M132.046,127.661A3.921,3.921,0,0,1,128,131.61a4,4,0,0,1-3.931-3.985,4.078,4.078,0,0,1,3.969-3.986A4,4,0,0,1,132.046,127.661Zm-3.931-2.847a2.835,2.835,0,1,0,2.8,2.9A2.856,2.856,0,0,0,128.115,124.814Z"/><path class="cls-1" d="M147.755,223.1a9.38,9.38,0,0,1-.517-3.491c0-.232.216-.468.411-.86.941.945.723,2,.813,2.95C148.534,222.459,148.489,222.463,147.755,223.1Z"/><path class="cls-1" d="M143,221.833a17.489,17.489,0,0,1-.022,1.87.5.5,0,0,1-.989.041c-.124-1.222-.213-2.45-.247-3.678,0-.2.321-.405.493-.607.188.191.5.358.541.579A17.837,17.837,0,0,1,143,221.833Z"/><path class="cls-1" d="M136.162,222.058a13.028,13.028,0,0,1,.027-1.724c.027-.2.34-.441.563-.5.119-.029.457.288.473.467q.151,1.78.187,3.57c.006.315-.191.705-.592.615a.863.863,0,0,1-.507-.594,17.259,17.259,0,0,1-.128-1.838Z"/><path class="cls-1" d="M123.462,220.97c.63.94.628,1.016,0,1.7Z"/><path class="cls-1" d="M103.386,171.057a12.6,12.6,0,1,1-12.608-12.681A12.656,12.656,0,0,1,103.386,171.057Z"/></svg>